# xmcd
#
# Track frame offsets: 
#        150
#        13099
#        25445
#        41763
#        57914
#        71614
#        87802
#        98996
#        116225
#        132363
#        145877
#        158852
#        173561
#        188687
#        203914
#        221088
#
# Disc length: 3219 seconds
#
# Revision: 0
# Processed by: cddbd v1.5.2PL0 Copyright (c) Steve Scherf et al.
# Submitted via: ExactAudioCopyFreeDBPlugin 1.0
#
DISCID=e90c9110
DTITLE=John Williamson - His Favourite Collection - CD 4 - Country Bal
DTITLE=lads
DYEAR=2016
DGENRE=Country
TTITLE0=Aussie Balladeer
TTITLE1=Bells In A Bushman’s Ear
TTITLE2=Campfire On The Road
TTITLE3=Thargomindah (The Way It Is)
TTITLE4=Look Out Cunnamulla
TTITLE5=Three Sons
TTITLE6=Looking For A Story
TTITLE7=A Bushman Can’t Survive
TTITLE8=Around Jindabyne
TTITLE9=Granny’s Little Gunyah
TTITLE10=A Thousand Feet
TTITLE11=Honest People
TTITLE12=You Come Back To Tassie
TTITLE13=Skinny Dingoes
TTITLE14=Sing You The Outback
TTITLE15=Ancient Mountains
EXTD=
EXTT0=
EXTT1=
EXTT2=
EXTT3=
EXTT4=
EXTT5=
EXTT6=
EXTT7=
EXTT8=
EXTT9=
EXTT10=
EXTT11=
EXTT12=
EXTT13=
EXTT14=
EXTT15=
PLAYORDER=
